<mxfile host="app.diagrams.net" modified="2023-04-03T17:23:23.302Z" agent="Mozilla/5.0 (Windows NT 10.0; Win64; x64) AppleWebKit/537.36 (KHTML, like Gecko) Chrome/111.0.0.0 Safari/537.36 Edg/111.0.1661.62" etag="3_WJA1zjWq5Sz_IU3LV_" version="21.1.4" type="device">
  <diagram name="Page-1" id="OAKePGRRe4CXEf9l2bNK">
    <mxGraphModel dx="1221" dy="654" grid="1" gridSize="10" guides="1" tooltips="1" connect="1" arrows="1" fold="1" page="1" pageScale="1" pageWidth="850" pageHeight="1100" math="0" shadow="0">
      <root>
        <mxCell id="0" />
        <mxCell id="1" parent="0" />
        <mxCell id="4SpEyBrdO1Vp7R6blmEl-10" value="" style="rounded=0;whiteSpace=wrap;html=1;" parent="1" vertex="1">
          <mxGeometry x="180" y="100" width="540" height="620" as="geometry" />
        </mxCell>
        <mxCell id="8eWRxeyMI1mKPOXdtPKB-1" value="&lt;span style=&quot;font-size: 13px;&quot;&gt;Database&lt;/span&gt;" style="shape=umlActor;verticalLabelPosition=bottom;verticalAlign=top;html=1;outlineConnect=0;" parent="1" vertex="1">
          <mxGeometry x="770" y="383" width="30" height="60" as="geometry" />
        </mxCell>
        <mxCell id="8eWRxeyMI1mKPOXdtPKB-2" value="Addresss" style="ellipse;whiteSpace=wrap;html=1;" parent="1" vertex="1">
          <mxGeometry x="380" y="230" width="120" height="70" as="geometry" />
        </mxCell>
        <mxCell id="8eWRxeyMI1mKPOXdtPKB-3" value="Phone no" style="ellipse;whiteSpace=wrap;html=1;" parent="1" vertex="1">
          <mxGeometry x="380" y="332" width="120" height="70" as="geometry" />
        </mxCell>
        <mxCell id="8eWRxeyMI1mKPOXdtPKB-4" value="Product code" style="ellipse;whiteSpace=wrap;html=1;" parent="1" vertex="1">
          <mxGeometry x="380" y="430" width="120" height="70" as="geometry" />
        </mxCell>
        <mxCell id="8eWRxeyMI1mKPOXdtPKB-11" value="" style="endArrow=none;html=1;rounded=0;entryX=-0.002;entryY=0.418;entryDx=0;entryDy=0;entryPerimeter=0;" parent="1" edge="1">
          <mxGeometry width="50" height="50" relative="1" as="geometry">
            <mxPoint x="240" y="269.32" as="sourcePoint" />
            <mxPoint x="379.76" y="268.58" as="targetPoint" />
          </mxGeometry>
        </mxCell>
        <mxCell id="8eWRxeyMI1mKPOXdtPKB-15" value="" style="endArrow=none;html=1;rounded=0;entryX=-0.002;entryY=0.418;entryDx=0;entryDy=0;entryPerimeter=0;" parent="1" edge="1">
          <mxGeometry width="50" height="50" relative="1" as="geometry">
            <mxPoint x="240.24" y="370.74" as="sourcePoint" />
            <mxPoint x="380" y="370" as="targetPoint" />
          </mxGeometry>
        </mxCell>
        <mxCell id="8eWRxeyMI1mKPOXdtPKB-16" value="" style="endArrow=none;html=1;rounded=0;entryX=-0.002;entryY=0.418;entryDx=0;entryDy=0;entryPerimeter=0;" parent="1" edge="1">
          <mxGeometry width="50" height="50" relative="1" as="geometry">
            <mxPoint x="240.24" y="470.74" as="sourcePoint" />
            <mxPoint x="380" y="470" as="targetPoint" />
          </mxGeometry>
        </mxCell>
        <mxCell id="8eWRxeyMI1mKPOXdtPKB-18" value="" style="endArrow=none;html=1;rounded=0;" parent="1" edge="1">
          <mxGeometry width="50" height="50" relative="1" as="geometry">
            <mxPoint x="240" y="670" as="sourcePoint" />
            <mxPoint x="240" y="165" as="targetPoint" />
          </mxGeometry>
        </mxCell>
        <mxCell id="8eWRxeyMI1mKPOXdtPKB-19" value="" style="endArrow=none;html=1;rounded=0;" parent="1" edge="1">
          <mxGeometry width="50" height="50" relative="1" as="geometry">
            <mxPoint x="130" y="410" as="sourcePoint" />
            <mxPoint x="240" y="410" as="targetPoint" />
          </mxGeometry>
        </mxCell>
        <mxCell id="8eWRxeyMI1mKPOXdtPKB-27" value="&lt;font style=&quot;font-size: 14px;&quot;&gt;System&lt;/font&gt;" style="text;html=1;strokeColor=none;fillColor=none;align=center;verticalAlign=middle;whiteSpace=wrap;rounded=0;" parent="1" vertex="1">
          <mxGeometry x="660" y="101" width="60" height="30" as="geometry" />
        </mxCell>
        <mxCell id="TLOJvEg19bEmzU704oMv-1" value="Quantity" style="ellipse;whiteSpace=wrap;html=1;" parent="1" vertex="1">
          <mxGeometry x="380" y="530" width="120" height="70" as="geometry" />
        </mxCell>
        <mxCell id="TLOJvEg19bEmzU704oMv-2" value="Name" style="ellipse;whiteSpace=wrap;html=1;" parent="1" vertex="1">
          <mxGeometry x="380" y="131" width="120" height="70" as="geometry" />
        </mxCell>
        <mxCell id="TLOJvEg19bEmzU704oMv-3" value="" style="endArrow=none;html=1;rounded=0;entryX=-0.002;entryY=0.418;entryDx=0;entryDy=0;entryPerimeter=0;" parent="1" edge="1">
          <mxGeometry width="50" height="50" relative="1" as="geometry">
            <mxPoint x="240.24" y="164.74" as="sourcePoint" />
            <mxPoint x="380" y="164" as="targetPoint" />
          </mxGeometry>
        </mxCell>
        <mxCell id="TLOJvEg19bEmzU704oMv-4" value="" style="endArrow=none;html=1;rounded=0;entryX=-0.002;entryY=0.418;entryDx=0;entryDy=0;entryPerimeter=0;" parent="1" edge="1">
          <mxGeometry width="50" height="50" relative="1" as="geometry">
            <mxPoint x="240.24" y="570.74" as="sourcePoint" />
            <mxPoint x="380" y="570" as="targetPoint" />
          </mxGeometry>
        </mxCell>
        <mxCell id="TLOJvEg19bEmzU704oMv-6" value="Total amount" style="ellipse;whiteSpace=wrap;html=1;" parent="1" vertex="1">
          <mxGeometry x="380" y="630" width="120" height="70" as="geometry" />
        </mxCell>
        <mxCell id="TLOJvEg19bEmzU704oMv-7" value="" style="endArrow=none;html=1;rounded=0;entryX=-0.002;entryY=0.418;entryDx=0;entryDy=0;entryPerimeter=0;" parent="1" edge="1">
          <mxGeometry width="50" height="50" relative="1" as="geometry">
            <mxPoint x="240.24" y="670.74" as="sourcePoint" />
            <mxPoint x="380" y="670" as="targetPoint" />
          </mxGeometry>
        </mxCell>
        <mxCell id="4SpEyBrdO1Vp7R6blmEl-1" value="" style="endArrow=none;html=1;rounded=0;entryX=-0.002;entryY=0.418;entryDx=0;entryDy=0;entryPerimeter=0;" parent="1" edge="1">
          <mxGeometry width="50" height="50" relative="1" as="geometry">
            <mxPoint x="638.76" y="268.5" as="sourcePoint" />
            <mxPoint x="499" y="269.24" as="targetPoint" />
          </mxGeometry>
        </mxCell>
        <mxCell id="4SpEyBrdO1Vp7R6blmEl-2" value="" style="endArrow=none;html=1;rounded=0;entryX=-0.002;entryY=0.418;entryDx=0;entryDy=0;entryPerimeter=0;" parent="1" edge="1">
          <mxGeometry width="50" height="50" relative="1" as="geometry">
            <mxPoint x="639.76" y="368.5" as="sourcePoint" />
            <mxPoint x="500" y="369.24" as="targetPoint" />
          </mxGeometry>
        </mxCell>
        <mxCell id="4SpEyBrdO1Vp7R6blmEl-3" value="" style="endArrow=none;html=1;rounded=0;entryX=-0.002;entryY=0.418;entryDx=0;entryDy=0;entryPerimeter=0;" parent="1" edge="1">
          <mxGeometry width="50" height="50" relative="1" as="geometry">
            <mxPoint x="639.76" y="470" as="sourcePoint" />
            <mxPoint x="500" y="470.74" as="targetPoint" />
          </mxGeometry>
        </mxCell>
        <mxCell id="4SpEyBrdO1Vp7R6blmEl-4" value="" style="endArrow=none;html=1;rounded=0;" parent="1" edge="1">
          <mxGeometry width="50" height="50" relative="1" as="geometry">
            <mxPoint x="640" y="166" as="sourcePoint" />
            <mxPoint x="640" y="671" as="targetPoint" />
          </mxGeometry>
        </mxCell>
        <mxCell id="4SpEyBrdO1Vp7R6blmEl-5" value="" style="endArrow=none;html=1;rounded=0;" parent="1" edge="1">
          <mxGeometry width="50" height="50" relative="1" as="geometry">
            <mxPoint x="750" y="410" as="sourcePoint" />
            <mxPoint x="640" y="410.5" as="targetPoint" />
          </mxGeometry>
        </mxCell>
        <mxCell id="4SpEyBrdO1Vp7R6blmEl-6" value="" style="endArrow=none;html=1;rounded=0;entryX=-0.002;entryY=0.418;entryDx=0;entryDy=0;entryPerimeter=0;" parent="1" edge="1">
          <mxGeometry width="50" height="50" relative="1" as="geometry">
            <mxPoint x="639.76" y="165.5" as="sourcePoint" />
            <mxPoint x="500" y="166.24" as="targetPoint" />
          </mxGeometry>
        </mxCell>
        <mxCell id="4SpEyBrdO1Vp7R6blmEl-7" value="" style="endArrow=none;html=1;rounded=0;entryX=-0.002;entryY=0.418;entryDx=0;entryDy=0;entryPerimeter=0;" parent="1" edge="1">
          <mxGeometry width="50" height="50" relative="1" as="geometry">
            <mxPoint x="639.76" y="570" as="sourcePoint" />
            <mxPoint x="500" y="570.74" as="targetPoint" />
          </mxGeometry>
        </mxCell>
        <mxCell id="4SpEyBrdO1Vp7R6blmEl-8" value="" style="endArrow=none;html=1;rounded=0;entryX=-0.002;entryY=0.418;entryDx=0;entryDy=0;entryPerimeter=0;" parent="1" edge="1">
          <mxGeometry width="50" height="50" relative="1" as="geometry">
            <mxPoint x="639.76" y="670" as="sourcePoint" />
            <mxPoint x="500" y="670.74" as="targetPoint" />
          </mxGeometry>
        </mxCell>
        <mxCell id="4SpEyBrdO1Vp7R6blmEl-9" value="&lt;span style=&quot;font-size: 13px;&quot;&gt;Admin&lt;/span&gt;" style="shape=umlActor;verticalLabelPosition=bottom;verticalAlign=top;html=1;outlineConnect=0;" parent="1" vertex="1">
          <mxGeometry x="90" y="385" width="30" height="60" as="geometry" />
        </mxCell>
        <mxCell id="4SpEyBrdO1Vp7R6blmEl-11" value="&lt;font style=&quot;font-size: 38px;&quot;&gt;&lt;b&gt;Offline Billing Management Use-Case Diagram&lt;/b&gt;&lt;/font&gt;" style="rounded=0;whiteSpace=wrap;html=1;" parent="1" vertex="1">
          <mxGeometry x="10" y="10" width="860" height="60" as="geometry" />
        </mxCell>
      </root>
    </mxGraphModel>
  </diagram>
</mxfile>
